<svg version="1.1" id="Layer_1" xmlns="http://www.w3.org/2000/svg" xmlns:xlink="http://www.w3.org/1999/xlink" x="0px" y="0px"
	 width="100%" viewBox="0 0 1200 1200" enable-background="new 0 0 1200 1200" xml:space="preserve">
<path fill="#000000" opacity="1.000000" stroke="none" 
	d="
M759.000000,1201.000000 
	C506.000000,1201.000000 253.500000,1201.000000 1.000000,1201.000000 
	C1.000000,801.000000 1.000000,401.000000 1.000000,1.000000 
	C401.000000,1.000000 801.000000,1.000000 1201.000000,1.000000 
	C1201.000000,401.000000 1201.000000,801.000000 1201.000000,1201.000000 
	C1053.833374,1201.000000 906.666687,1201.000000 759.000000,1201.000000 
M295.957031,712.535767 
	C303.769501,727.316956 310.680756,742.667542 319.584198,756.759399 
	C337.489258,785.098694 357.946686,811.551941 383.331818,833.776855 
	C393.782318,842.926331 404.236694,852.119568 415.228760,860.593079 
	C446.704712,884.857117 481.528870,902.996155 519.043640,916.028503 
	C538.545898,922.803528 558.369995,928.390747 578.890320,930.961731 
	C597.182556,933.253540 615.511963,935.392334 633.885132,936.830200 
	C642.392517,937.495911 651.044617,936.016174 659.628052,936.064697 
	C680.004578,936.179810 699.910400,932.624939 719.835022,929.018555 
	C741.898682,925.024902 763.352173,918.678040 783.828552,909.795105 
	C803.078491,901.444214 822.050354,892.176270 840.249207,881.749146 
	C862.824341,868.814697 883.474487,852.898926 902.402771,834.979370 
	C917.013733,821.147217 930.696045,806.445923 943.151428,790.547974 
	C956.638977,773.332703 968.594116,755.183167 978.950989,735.987000 
	C992.099121,711.617310 1002.925171,686.198853 1009.847351,659.366882 
	C1014.030518,643.151978 1017.217468,626.625183 1019.831970,610.077332 
	C1021.996887,596.375671 1023.364502,582.461609 1023.834534,568.599243 
	C1024.510864,548.652100 1024.330444,528.662842 1021.036255,508.846100 
	C1019.147766,497.485413 1018.558716,485.819855 1015.686462,474.731415 
	C1010.825684,455.965637 1005.756226,437.100433 998.666199,419.107758 
	C991.220703,400.213074 982.163757,381.809753 972.234619,364.074280 
	C960.196167,342.571075 946.007385,322.318237 928.854858,304.445435 
	C915.908447,290.955383 903.281982,276.964447 889.000000,265.003174 
	C873.937927,252.388550 857.406860,241.418823 840.926147,230.634247 
	C819.209167,216.423187 795.671143,205.666306 771.211304,197.006149 
	C746.844299,188.378784 721.996338,181.652649 696.195312,178.997925 
	C682.206360,177.558563 668.197693,175.275284 654.195190,175.255325 
	C635.111877,175.228134 616.006592,176.729156 596.949402,178.109619 
	C587.247620,178.812408 577.429871,179.872803 568.018372,182.201584 
	C550.274902,186.591995 532.597717,191.440460 515.239258,197.151123 
	C490.762573,205.203598 467.673157,216.550583 445.770477,230.087906 
	C414.357544,249.503220 385.857025,272.466461 361.189972,300.155792 
	C346.121338,317.070679 332.324463,334.807739 320.341400,354.051208 
	C305.513489,377.863129 293.233704,402.829041 283.934601,429.295044 
	C276.658386,450.003693 271.524689,471.166046 267.740753,492.819672 
	C264.257751,512.750916 262.925232,532.779724 262.195251,552.857666 
	C261.778473,564.322449 263.056335,575.883423 264.078491,587.355896 
	C265.031189,598.048645 266.775696,608.668152 267.957855,619.343628 
	C270.062836,638.353271 275.350098,656.631042 281.155792,674.710327 
	C285.214203,687.348450 290.625336,699.552185 295.957031,712.535767 
z"/>
<path fill="#FFFFFE" opacity="1.000000" stroke="none" 
	d="
M295.694641,712.242859 
	C290.625336,699.552185 285.214203,687.348450 281.155792,674.710327 
	C275.350098,656.631042 270.062836,638.353271 267.957855,619.343628 
	C266.775696,608.668152 265.031189,598.048645 264.078491,587.355896 
	C263.056335,575.883423 261.778473,564.322449 262.195251,552.857666 
	C262.925232,532.779724 264.257751,512.750916 267.740753,492.819672 
	C271.524689,471.166046 276.658386,450.003693 283.934601,429.295044 
	C293.233704,402.829041 305.513489,377.863129 320.341400,354.051208 
	C332.324463,334.807739 346.121338,317.070679 361.189972,300.155792 
	C385.857025,272.466461 414.357544,249.503220 445.770477,230.087906 
	C467.673157,216.550583 490.762573,205.203598 515.239258,197.151123 
	C532.597717,191.440460 550.274902,186.591995 568.018372,182.201584 
	C577.429871,179.872803 587.247620,178.812408 596.949402,178.109619 
	C616.006592,176.729156 635.111877,175.228134 654.195190,175.255325 
	C668.197693,175.275284 682.206360,177.558563 696.195312,178.997925 
	C721.996338,181.652649 746.844299,188.378784 771.211304,197.006149 
	C795.671143,205.666306 819.209167,216.423187 840.926147,230.634247 
	C857.406860,241.418823 873.937927,252.388550 889.000000,265.003174 
	C903.281982,276.964447 915.908447,290.955383 928.854858,304.445435 
	C946.007385,322.318237 960.196167,342.571075 972.234619,364.074280 
	C982.163757,381.809753 991.220703,400.213074 998.666199,419.107758 
	C1005.756226,437.100433 1010.825684,455.965637 1015.686462,474.731415 
	C1018.558716,485.819855 1019.147766,497.485413 1021.036255,508.846100 
	C1024.330444,528.662842 1024.510864,548.652100 1023.834534,568.599243 
	C1023.364502,582.461609 1021.996887,596.375671 1019.831970,610.077332 
	C1017.217468,626.625183 1014.030518,643.151978 1009.847351,659.366882 
	C1002.925171,686.198853 992.099121,711.617310 978.950989,735.987000 
	C968.594116,755.183167 956.638977,773.332703 943.151428,790.547974 
	C930.696045,806.445923 917.013733,821.147217 902.402771,834.979370 
	C883.474487,852.898926 862.824341,868.814697 840.249207,881.749146 
	C822.050354,892.176270 803.078491,901.444214 783.828552,909.795105 
	C763.352173,918.678040 741.898682,925.024902 719.835022,929.018555 
	C699.910400,932.624939 680.004578,936.179810 659.628052,936.064697 
	C651.044617,936.016174 642.392517,937.495911 633.885132,936.830200 
	C615.511963,935.392334 597.182556,933.253540 578.890320,930.961731 
	C558.369995,928.390747 538.545898,922.803528 519.043640,916.028503 
	C481.528870,902.996155 446.704712,884.857117 415.228760,860.593079 
	C404.236694,852.119568 393.782318,842.926331 383.331818,833.776855 
	C357.946686,811.551941 337.489258,785.098694 319.584198,756.759399 
	C310.680756,742.667542 303.769501,727.316956 295.694641,712.242859 
M338.136322,416.685730 
	C340.767303,417.053894 343.407318,417.741669 346.025757,417.667419 
	C347.537842,417.624512 349.015106,416.352081 350.508026,415.633026 
	C350.308716,415.190948 350.109406,414.748871 349.910095,414.306793 
	C344.321991,413.579865 338.742279,412.770905 333.138550,412.196716 
	C332.047272,412.084869 330.862427,412.885895 329.720764,413.265839 
	C330.167633,414.495148 330.293091,416.033173 331.121643,416.895905 
	C333.603973,419.480408 336.361084,421.800995 339.745422,424.896362 
	C334.851166,424.470032 331.101593,424.047058 327.340698,423.883636 
	C326.401581,423.842804 325.181519,424.425751 324.565369,425.134644 
	C324.231628,425.518738 324.613007,427.088043 325.160156,427.584991 
	C329.665588,431.677307 334.285614,435.643463 339.613312,440.296173 
	C341.102966,432.765991 333.221924,432.744293 332.053925,427.675934 
	C335.415710,427.922607 338.634247,428.258118 341.859009,428.336609 
	C342.863586,428.361053 343.885132,427.690247 344.898895,427.337738 
	C344.532745,426.335052 344.430664,425.076752 343.752441,424.376221 
	C341.443054,421.990692 338.930511,419.801849 336.901031,417.110962 
	C337.031433,416.964294 337.161865,416.817627 338.136322,416.685730 
M624.498535,478.843048 
	C624.498535,478.843048 624.062988,478.766632 624.030823,478.063019 
	C610.823486,452.656708 597.545654,427.286591 584.475708,401.809845 
	C582.196228,397.366638 578.908691,397.369354 574.872192,397.978149 
	C570.826050,398.588409 569.509399,401.094086 568.903076,404.786926 
	C566.476135,419.567993 563.760010,434.301575 561.337708,449.083374 
	C559.105713,462.704071 557.113159,476.363953 554.506714,490.131805 
	C554.337341,490.089752 554.167908,490.047699 553.941772,489.272034 
	C541.726685,463.382385 529.567871,437.465637 517.166626,411.665466 
	C516.360779,409.989014 513.682556,408.200867 511.889954,408.215881 
	C507.855469,408.249634 503.830170,409.383362 499.413788,410.135376 
	C500.243469,412.018311 500.787933,413.395142 501.442047,414.717773 
	C516.276001,444.711609 531.116455,474.702209 545.969116,504.686768 
	C550.178101,513.183838 550.180725,513.001953 559.415283,512.101135 
	C562.813843,511.769623 563.726135,510.340607 564.226074,507.192810 
	C566.940247,490.101898 570.003784,473.066803 572.783997,455.985962 
	C574.706299,444.175781 576.364807,432.322693 578.712524,420.276123 
	C579.112976,420.265747 579.513489,420.255371 579.959351,420.950470 
	C592.290100,444.933441 604.770386,468.841492 616.843506,492.953461 
	C619.765015,498.788239 622.253784,503.838501 630.050415,501.107300 
	C630.132507,501.078552 630.275635,501.223969 630.391235,501.288940 
	C630.185974,501.514374 630.022949,501.856995 629.769348,501.948639 
	C607.522583,509.985748 593.402100,530.729492 596.049072,558.738586 
	C599.102234,591.045959 621.752686,618.010437 661.386230,609.918213 
	C674.954834,607.147766 686.004944,600.433472 693.447571,588.469604 
	C686.265930,580.521606 685.747498,580.494995 678.862061,587.488098 
	C667.785095,598.738342 645.587280,601.803894 632.014099,593.777161 
	C618.649109,585.873596 613.338379,573.105408 611.264954,558.506531 
	C606.598694,525.652466 635.057678,501.874420 664.790100,514.338074 
	C675.974792,519.026611 674.528503,516.322754 678.574951,508.734650 
	C678.787842,508.335510 678.787231,507.822571 678.940613,507.108612 
	C672.512817,502.723572 665.530151,499.588959 657.796387,499.062866 
	C650.322571,498.554443 642.786987,498.952728 635.127014,498.952728 
	C640.557983,461.725525 646.045715,424.109344 651.605774,385.997040 
	C648.053040,386.484344 645.308716,386.956116 642.544617,387.218323 
	C638.026428,387.646942 635.955322,389.941956 635.415466,394.558289 
	C633.927185,407.283997 631.933594,419.949707 630.346436,432.664948 
	C628.430542,448.013855 626.726990,463.389282 624.498535,478.843048 
M719.140991,567.249817 
	C715.097717,541.495911 711.054443,515.742004 707.002563,489.933380 
	C708.068420,489.541748 708.664062,489.264252 709.289551,489.101562 
	C725.363342,484.920868 735.016846,474.914612 736.383972,458.569305 
	C737.031616,450.826019 735.828613,442.523834 733.604492,435.026550 
	C728.603638,418.169006 714.195068,408.839264 697.174683,410.060730 
	C678.298767,411.415344 665.228516,422.696198 662.619019,440.784363 
	C661.804077,446.433899 662.154358,452.494232 663.228149,458.126953 
	C666.166443,473.539490 673.822876,485.396179 690.141479,489.411163 
	C693.139709,490.148895 693.494690,492.066284 693.860840,494.404602 
	C698.289856,522.684143 702.722473,550.963135 707.182678,579.237793 
	C708.310852,586.389282 709.540039,593.524841 710.754578,600.859924 
	C715.573730,600.035034 719.748352,599.320496 724.179749,598.562012 
	C722.498108,588.138855 720.882935,578.128052 719.140991,567.249817 
M487.888885,653.598511 
	C485.508362,649.588989 483.323090,645.441162 480.637238,641.647888 
	C479.744385,640.386902 477.575470,639.429626 475.974274,639.406250 
	C473.369965,639.368225 470.760162,640.544800 468.139191,640.603149 
	C464.713745,640.679443 463.828918,642.549072 463.177277,645.444031 
	C455.576996,679.210083 447.870728,712.952271 440.211365,746.705017 
	C439.467194,749.984436 438.849426,753.292542 438.116425,756.862915 
	C441.507812,756.354553 444.117950,755.813782 446.754547,755.600830 
	C451.486084,755.218811 453.629089,752.770447 454.400146,748.074646 
	C455.584839,740.859314 457.244904,733.705017 459.104828,726.630432 
	C459.528595,725.018677 461.425232,722.870667 462.929016,722.609192 
	C478.096649,719.972168 493.323700,717.676636 508.562805,715.280701 
	C513.185730,723.223389 517.439697,730.961914 522.182739,738.388000 
	C523.412903,740.313965 526.111694,742.301147 528.244568,742.427612 
	C531.839661,742.640686 535.521545,741.388794 539.781677,740.645874 
	C522.330994,711.405090 505.276123,682.827515 487.888885,653.598511 
M902.912048,383.561829 
	C900.815491,370.451752 898.718872,357.341644 896.572205,343.918671 
	C891.807678,344.761658 887.500183,345.523743 883.167419,346.290344 
	C885.324646,360.258057 887.387085,373.611847 889.515320,387.391937 
	C888.143250,387.050323 887.635193,387.014282 887.212280,386.805603 
	C866.622803,376.645966 845.625366,386.646484 840.890869,409.091187 
	C838.147461,422.096954 840.230103,434.684753 846.005676,446.515045 
	C855.741882,466.457886 880.227966,469.311035 894.624512,452.369873 
	C896.192200,450.525024 897.683594,448.615326 899.405701,446.495239 
	C903.977722,458.295074 903.977722,458.295074 913.874512,455.379913 
	C913.920898,454.930023 914.077148,454.433624 914.004578,453.973236 
	C910.351990,430.790161 906.679749,407.610138 902.912048,383.561829 
M909.526978,669.295227 
	C899.113892,664.841797 895.562866,655.945374 893.695923,645.733276 
	C894.644348,645.404846 895.093750,645.170288 895.568115,645.096436 
	C911.152893,642.671753 926.732971,640.215210 942.331726,637.883484 
	C946.371460,637.279602 947.924438,635.689758 947.226074,631.257324 
	C943.117126,605.178589 920.877869,595.606750 898.810120,605.545959 
	C883.632385,612.381836 876.815125,628.102417 879.987549,647.245667 
	C883.746338,669.928162 899.952698,685.836487 924.615845,680.941406 
	C935.307129,678.819458 944.767639,674.387939 951.083557,664.942993 
	C945.071350,658.012085 945.079224,658.043579 938.236084,663.322205 
	C929.893127,669.757812 920.714111,672.656799 909.526978,669.295227 
M734.191101,708.183228 
	C735.011475,708.752197 735.904663,709.889160 736.639832,709.794739 
	C740.376343,709.315247 744.071899,708.516663 747.965820,707.795776 
	C747.794861,706.250854 747.714111,705.111389 747.537598,703.987000 
	C744.933044,687.393005 742.291931,670.804688 739.745667,654.201782 
	C739.536011,652.835083 739.392578,650.745911 740.166138,650.057678 
	C744.809631,645.926086 749.171997,640.780823 754.676208,638.461426 
	C765.689514,633.820557 774.417603,639.311401 776.867004,651.082825 
	C777.781067,655.475586 778.342773,659.942017 779.050415,664.377197 
	C781.035400,676.817383 783.012634,689.258789 785.069397,702.180176 
	C789.803467,701.325623 794.062683,700.556763 798.609619,699.736023 
	C796.440308,686.212036 794.583801,673.371948 792.256409,660.617737 
	C790.922058,653.305542 789.545959,645.852051 786.873657,638.973022 
	C783.949707,631.446106 777.800781,626.848572 769.415649,625.867737 
	C757.977966,624.529907 748.549255,628.321655 740.979126,636.904846 
	C739.733398,638.317322 738.566589,639.799438 737.168030,641.484558 
	C732.666382,630.743469 731.635803,630.246338 722.467590,633.954956 
	C726.333984,658.396423 730.205566,682.870361 734.191101,708.183228 
M764.522095,523.753479 
	C775.284668,524.096680 781.283569,532.335388 780.314270,545.590698 
	C778.093811,546.056641 775.815613,546.456543 773.577820,547.017578 
	C762.387451,549.822937 751.382019,553.102295 742.874695,561.521912 
	C736.909546,567.425476 735.676453,574.458252 738.780640,582.179688 
	C741.717896,589.485779 747.123657,593.569641 755.086182,594.122986 
	C766.505493,594.916565 775.903687,590.824341 783.551575,582.446289 
	C784.629456,581.265564 785.699890,580.078125 786.862183,578.796265 
	C792.524963,588.828674 792.524963,588.828674 801.174072,585.992615 
	C798.193298,568.188660 795.737732,550.204102 792.027954,532.482239 
	C789.373535,519.802002 780.123596,512.232422 768.671143,512.147827 
	C754.326660,512.041870 742.623352,517.809875 734.001587,529.410950 
	C739.033081,536.924988 740.615723,537.133545 747.184265,531.189697 
	C751.878845,526.941589 757.104065,523.926331 764.522095,523.753479 
M696.100586,709.523010 
	C697.273865,708.241699 698.447083,706.960388 699.743774,705.544189 
	C704.931335,715.228516 705.722717,715.638977 714.107666,712.790100 
	C710.932312,694.429138 708.121033,675.874146 704.366333,657.512024 
	C702.695740,649.341919 697.118530,643.364014 688.960144,640.409729 
	C675.176331,635.418457 654.116333,643.664062 647.077820,656.761047 
	C652.256775,663.817993 653.147095,663.749084 659.950439,658.209900 
	C663.242004,655.529907 666.957214,652.980713 670.908691,651.579590 
	C679.923706,648.382874 686.842468,650.640808 690.146790,657.848816 
	C692.148499,662.215271 692.878052,667.165039 694.248779,672.103699 
	C690.665894,672.886902 688.070740,673.372498 685.518799,674.026306 
	C674.665588,676.806702 664.032349,680.143860 655.751831,688.238037 
	C649.730774,694.123718 648.422363,701.419312 651.775879,709.353760 
	C654.941650,716.843872 660.696350,720.713013 668.805664,721.043579 
	C679.410217,721.475830 688.319946,717.738220 696.100586,709.523010 
M853.131104,552.582275 
	C856.434082,560.179138 854.192993,566.478882 846.746338,569.789795 
	C840.033203,572.774658 833.019043,573.054626 826.481873,569.698120 
	C819.934753,566.336548 816.757385,567.352417 815.226746,576.120178 
	C826.980164,583.945740 844.389282,583.932434 856.269470,576.088867 
	C865.035950,570.301025 868.905212,561.173950 866.782227,551.026733 
	C864.764709,541.383667 857.551392,537.781250 848.913696,536.046692 
	C842.735229,534.805847 836.445435,534.063049 830.330261,532.582092 
	C826.257385,531.595703 822.373840,529.736084 821.851074,524.638489 
	C821.293884,519.205078 824.172974,515.769653 828.641785,513.497314 
	C834.743469,510.394775 841.067810,510.475037 847.524658,512.512207 
	C855.497986,515.027893 855.809753,514.786438 857.933594,506.627014 
	C845.817261,497.583130 824.472412,499.510529 814.452332,510.553253 
	C803.880432,522.204102 808.749634,539.737305 823.803345,543.926819 
	C827.305176,544.901489 830.960205,545.316345 834.531494,546.053101 
	C840.795959,547.345398 847.592590,547.028198 853.131104,552.582275 
M891.621216,492.922028 
	C880.307556,497.630005 874.581909,505.286713 874.909973,515.269348 
	C875.266357,526.113525 882.295410,532.753662 895.640503,534.974487 
	C901.526489,535.953979 907.530762,536.598206 913.222778,538.273193 
	C920.555054,540.431152 923.232910,548.078613 918.843628,554.158447 
	C917.026550,556.675415 913.973877,558.756775 911.040527,559.920349 
	C904.056885,562.690369 897.009827,561.800842 890.341736,558.446106 
	C886.262024,556.393616 883.691772,557.560913 882.231506,561.731018 
	C881.800781,562.960999 881.352539,564.184875 880.934448,565.349854 
	C894.001648,575.113098 917.164307,572.875244 927.738770,560.977112 
	C938.896545,548.422668 933.323730,529.951111 917.084839,526.125061 
	C910.153198,524.491943 903.048157,523.601685 896.099731,522.030151 
	C891.892029,521.078491 888.253723,519.049805 887.838562,513.964539 
	C887.414856,508.774872 890.097412,505.411682 894.407898,503.191193 
	C900.688293,499.955994 907.260254,500.298065 913.820923,502.164276 
	C921.509521,504.351349 922.402283,503.855896 923.841492,495.738922 
	C913.884216,489.589752 903.337463,489.188263 891.621216,492.922028 
M816.434326,624.980835 
	C806.334534,637.763977 806.328308,652.056885 810.673096,666.723877 
	C817.488464,689.731140 837.780334,699.194214 859.828186,689.825012 
	C866.315674,687.068115 871.839233,682.997864 875.602417,676.144226 
	C874.667603,675.472900 873.913208,675.060364 873.318298,674.483276 
	C868.787476,670.088501 868.486084,670.075989 864.164551,674.405762 
	C863.458191,675.113403 862.778809,675.852966 862.028259,676.510681 
	C850.875854,686.285095 833.590210,683.691650 827.364746,670.338623 
	C824.168091,663.481873 822.610229,655.405212 822.238098,647.785767 
	C821.536865,633.429688 829.359253,624.917358 843.681213,623.579163 
	C847.755432,623.198486 852.238831,624.544739 856.171204,626.049072 
	C860.065125,627.538635 862.157227,626.733276 863.604858,623.098389 
	C864.084839,621.892883 864.661011,620.725769 865.167236,619.598999 
	C852.100098,608.760864 830.509827,611.006531 816.434326,624.980835 
M809.773071,436.834442 
	C811.531860,448.124390 813.290710,459.414307 815.135437,471.255859 
	C819.880310,470.447021 824.165527,469.716553 828.671326,468.948456 
	C822.699097,431.313843 816.829895,394.328094 810.948669,357.267029 
	C806.116760,358.047729 802.068604,358.701782 797.434814,359.450470 
	C801.526184,385.191864 805.562256,410.585632 809.773071,436.834442 
M600.436401,730.204956 
	C594.641968,693.307983 588.847534,656.411011 583.013977,619.265137 
	C578.210754,620.042847 574.045105,620.717346 569.438049,621.463318 
	C575.382019,658.951965 581.250061,695.961731 587.188232,733.414185 
	C591.912170,732.466614 595.952576,731.656128 600.436401,730.204956 
M533.859009,627.795227 
	C533.965210,629.287048 533.961792,630.796143 534.193909,632.268127 
	C538.546692,659.872925 542.915771,687.475220 547.309326,715.073547 
	C548.576721,723.034546 549.931030,730.981689 551.278381,739.134460 
	C556.137085,738.253296 560.329590,737.493042 564.663635,736.707031 
	C558.714844,699.218994 552.835449,662.168457 546.935791,624.990295 
	C542.292175,625.789368 538.373474,626.463684 533.859009,627.795227 
M756.641113,461.930328 
	C757.576050,467.821655 758.510925,473.713013 759.547302,480.243835 
	C764.141785,479.509674 768.438904,478.823029 773.125977,478.074097 
	C770.844727,463.726074 768.798889,449.933472 766.429321,436.196716 
	C763.684753,420.286499 771.293640,410.545593 787.168091,409.958435 
	C788.404785,409.912659 790.647644,409.403046 790.684937,408.962158 
	C790.987671,405.379700 791.449280,401.614227 790.578247,398.235626 
	C790.273804,397.055054 786.327087,396.099731 784.124329,396.247009 
	C774.965393,396.859192 768.758240,401.897583 765.041199,410.167725 
	C764.333862,411.741608 763.612610,413.309265 762.624329,415.480530 
	C757.863647,400.488708 757.863647,400.488708 747.459717,403.933014 
	C750.448792,422.957428 753.443359,442.016815 756.641113,461.930328 
M614.085022,650.296875 
	C611.486877,650.651367 611.217712,651.974365 611.635498,654.466431 
	C613.970032,668.391663 616.015137,682.365112 618.227783,696.311218 
	C619.884766,706.755371 621.645264,717.183105 623.386292,727.780212 
	C628.100342,727.013855 632.307922,726.329834 636.825378,725.595398 
	C632.747070,699.904419 628.722046,674.548462 624.643005,648.852600 
	C621.082153,649.320496 617.988831,649.726990 614.085022,650.296875 
M620.769226,618.671021 
	C617.106018,615.453430 613.017883,614.779114 608.860107,617.350220 
	C605.325623,619.535950 603.661804,623.014832 604.445007,627.184509 
	C605.209473,631.254944 607.636108,634.149231 611.847595,634.994080 
	C615.929810,635.812927 619.457520,634.690247 621.901123,631.133240 
	C624.710815,627.043274 624.489380,623.048584 620.769226,618.671021 
M635.817078,895.756409 
	C640.247864,899.261047 641.609680,905.879883 648.629395,908.656860 
	C648.629395,901.995483 648.703186,896.393372 648.550049,890.797424 
	C648.526978,889.953613 647.444641,889.138855 646.852234,888.310608 
	C646.279785,889.142944 645.267761,889.947693 645.213562,890.812500 
	C645.014954,893.981445 645.134888,897.170349 645.134888,900.943726 
	C639.819336,896.847717 638.464905,890.232361 631.621216,887.518433 
	C631.621216,894.167847 631.552979,899.798401 631.695190,905.423645 
	C631.716370,906.261230 632.727966,907.073669 633.281311,907.897705 
	C633.864868,907.098328 634.888733,906.332825 634.953369,905.493591 
	C635.194641,902.355652 635.121948,899.193665 635.817078,895.756409 
M690.727539,891.042480 
	C686.251953,884.078796 679.890991,886.563782 673.419250,887.397095 
	C674.196899,894.028687 674.937561,900.345398 675.675476,906.638672 
	C690.468994,905.103516 693.954712,901.572144 690.727539,891.042480 
M314.848450,588.389587 
	C319.089539,583.817200 317.471985,578.571472 316.792145,573.009155 
	C310.347778,573.463379 304.152100,573.900085 297.420319,574.374573 
	C298.208099,580.009705 296.605652,585.976807 302.195068,589.562134 
	C306.163177,592.107483 310.388885,591.782166 314.848450,588.389587 
M302.992981,502.581665 
	C305.018616,502.989166 307.044281,503.396667 309.208344,503.832031 
	C308.029968,508.989410 300.153625,506.827667 300.322815,513.644714 
	C303.491455,512.275024 306.138794,511.130676 308.786102,509.986328 
	C308.701080,510.507874 308.616028,511.029388 308.530975,511.550934 
	C311.246826,512.404846 314.314545,514.509155 316.608429,513.863586 
	C322.112854,512.314514 320.579163,506.666290 322.013123,501.925262 
	C315.837250,500.909760 310.009399,499.875275 304.144562,499.133484 
	C303.681213,499.074890 302.960693,501.049469 302.992981,502.581665 
M823.038879,852.456970 
	C822.299500,851.321594 821.358093,850.266968 820.865234,849.033081 
	C820.003174,846.875427 820.051270,843.646301 818.540894,842.649353 
	C816.946411,841.596802 813.858948,842.225403 811.640686,842.868286 
	C809.573242,843.467285 807.791016,845.050354 805.798584,846.251282 
	C809.240845,852.114258 812.347595,857.405762 815.590942,862.929871 
	C816.720825,862.306213 817.652161,861.792175 818.628845,861.253052 
	C817.480286,858.834106 816.467224,856.700439 815.454163,854.566833 
	C815.736877,854.236572 816.019531,853.906311 816.302185,853.576050 
	C818.353333,854.406616 820.347778,855.461914 822.473206,855.997742 
	C824.225586,856.439453 826.133057,856.265991 827.971802,856.365173 
	C828.025696,855.889221 828.079529,855.413330 828.133423,854.937378 
	C826.647766,854.229309 825.162109,853.521179 823.038879,852.456970 
M324.644745,458.654327 
	C323.868500,458.390228 323.007904,457.764801 322.330261,457.923004 
	C318.995605,458.701660 314.509613,458.699188 312.724945,460.864166 
	C310.717163,463.299774 310.174500,467.939117 310.793976,471.286835 
	C311.531708,475.273682 315.397644,477.030823 319.568207,477.268768 
	C324.299377,477.538605 327.578674,475.467712 329.238129,471.085999 
	C331.130920,466.088013 329.779602,462.006470 324.644745,458.654327 
M603.453613,890.098328 
	C602.514587,888.505615 601.673096,886.836304 600.541382,885.394897 
	C600.350647,885.152039 598.458740,885.629700 598.112061,886.220154 
	C594.819336,891.828003 591.690674,897.532227 587.846497,904.403320 
	C592.545349,902.558777 595.823792,900.112000 598.779419,900.454041 
	C601.467163,900.765076 603.804077,904.107300 606.295593,906.113342 
	C606.571472,905.851562 606.847351,905.589783 607.123230,905.327942 
	C605.983215,900.509399 604.843140,895.690918 603.453613,890.098328 
M441.361786,817.656799 
	C435.331940,820.890625 429.302094,824.124390 423.272247,827.358215 
	C423.359039,827.789246 423.445831,828.220276 423.532593,828.651306 
	C426.744293,829.053467 430.769928,828.422607 432.946991,830.137817 
	C435.292511,831.986023 435.906403,836.031921 437.794281,840.288025 
	C439.985504,833.051331 441.890198,827.091309 443.504120,821.053650 
	C443.731018,820.204712 442.535583,818.975647 441.361786,817.656799 
M344.094666,725.470520 
	C343.293518,727.375977 342.492371,729.281433 341.691254,731.186890 
	C342.251587,731.474915 342.811951,731.762939 343.372284,732.050964 
	C347.437073,727.328247 351.635956,722.708008 355.413788,717.765991 
	C355.944855,717.071167 354.312103,713.432373 353.856110,713.466919 
	C347.353943,713.959900 340.881927,714.850830 334.402649,715.645813 
	C334.121338,716.189819 333.840027,716.733826 333.558716,717.277832 
	C334.550629,717.801758 335.685425,718.941040 336.511047,718.749207 
	C341.649719,717.555664 342.492310,721.483154 344.094666,725.470520 
M920.199158,759.253296 
	C922.453125,760.823792 924.707031,762.394287 927.064819,764.037170 
	C929.172058,761.072083 931.022827,758.713562 932.559631,756.165710 
	C933.063293,755.330688 932.751831,754.003967 932.813171,752.902161 
	C931.924927,753.400757 930.836121,753.718872 930.191040,754.436157 
	C928.914185,755.855591 927.882629,757.495544 926.631470,759.205933 
	C925.047241,757.961914 923.917725,757.074890 922.681580,756.104248 
	C923.864990,754.065857 924.902466,752.278870 925.939941,750.491882 
	C925.555847,750.082886 925.171753,749.673889 924.787659,749.264893 
	C923.021362,750.806702 921.255127,752.348511 919.320190,754.037537 
	C918.210815,753.180786 917.069885,752.299622 916.095093,751.546814 
	C917.466553,748.713684 918.699463,746.166870 919.932373,743.619995 
	C919.313171,743.321716 918.693909,743.023376 918.074707,742.725037 
	C915.803528,745.914917 913.532349,749.104797 910.994751,752.668762 
	C913.981506,754.825073 916.783997,756.848328 920.199158,759.253296 
M775.794006,869.744507 
	C777.323975,873.183167 778.853882,876.621887 780.506287,880.335754 
	C783.799622,878.873901 786.696045,877.701782 789.466980,876.284485 
	C790.234131,875.892090 790.628235,874.770447 791.193542,873.983398 
	C790.212402,873.881165 789.151184,873.490845 788.266785,873.736633 
	C786.422302,874.249207 784.671326,875.097839 782.663696,875.895081 
	C781.947693,874.139404 781.408875,872.818054 781.096069,872.051086 
	C782.997559,870.084229 784.523804,868.505371 786.050171,866.926575 
	C784.126892,867.252319 782.205750,867.592529 780.277893,867.888306 
	C779.984619,867.933350 779.659607,867.772339 779.022278,867.637329 
	C778.565796,866.451172 778.047424,865.104187 777.509521,863.706604 
	C780.162903,862.312805 782.548767,861.059509 784.934692,859.806152 
	C784.734680,859.299683 784.534668,858.793213 784.334656,858.286743 
	C780.025330,857.881042 776.747314,861.000183 772.544373,862.350098 
	C773.640381,864.850830 774.560791,866.950806 775.794006,869.744507 
M492.295227,867.854919 
	C492.163940,869.450073 492.032623,871.045166 491.901367,872.640381 
	C493.735352,871.242432 495.569305,869.844543 497.738098,868.191406 
	C504.991760,870.191772 508.226196,869.274780 509.339722,864.523987 
	C510.367004,860.140930 506.704315,856.735779 498.541443,854.807678 
	C496.612366,858.867188 494.636871,863.024353 492.295227,867.854919 
M847.796387,821.123779 
	C848.855347,824.993713 849.914368,828.863586 851.015137,832.885986 
	C845.158508,832.068909 842.140442,824.935974 835.715332,827.775757 
	C840.813904,831.628113 846.107605,834.973694 851.614990,837.919739 
	C852.260498,838.264954 855.291809,836.146301 855.176025,835.613708 
	C853.818787,829.371216 852.070801,823.213562 850.425964,817.033569 
	C849.991821,816.997925 849.557678,816.962341 849.123535,816.926697 
	C848.612732,818.087646 848.101929,819.248535 847.796387,821.123779 
M373.316650,750.048584 
	C373.983826,750.823547 374.651001,751.598511 375.318176,752.373474 
	C375.800934,751.805786 376.812714,750.954956 376.684021,750.714478 
	C375.476349,748.457886 374.487823,745.755005 372.579559,744.319641 
	C371.335693,743.384094 368.006439,743.583984 366.821136,744.636963 
	C365.451294,745.853821 365.305817,748.543884 364.849274,750.642212 
	C364.690826,751.370483 365.457458,752.286621 365.331604,753.038330 
	C365.115417,754.329773 364.530212,755.559509 364.099915,756.815125 
	C362.816681,756.037292 361.176666,755.524170 360.348755,754.408508 
	C359.491455,753.253113 359.421814,751.513245 359.007629,750.029053 
	C358.557739,749.986023 358.107819,749.942932 357.657898,749.899902 
	C357.275024,750.920532 356.524963,751.958679 356.572693,752.958740 
	C356.781006,757.322632 360.522064,760.635254 364.461639,760.174377 
	C368.715210,759.676819 369.959747,757.066650 368.908264,751.566467 
	C368.641876,750.173035 369.191498,748.623718 369.366180,747.145996 
	C370.621460,747.876648 371.876709,748.607239 373.316650,750.048584 
M752.433289,883.980530 
	C753.858337,888.610657 750.796692,888.304138 747.805908,888.334534 
	C746.883118,888.343872 745.967651,889.071350 745.048828,889.470032 
	C745.307312,890.011353 745.583252,891.029419 745.821472,891.020691 
	C748.358948,890.927429 751.442017,891.475586 753.263245,890.226379 
	C754.971924,889.054382 756.178284,885.870544 756.012146,883.693665 
	C755.901123,882.238220 753.143250,880.732056 751.302124,879.750732 
	C750.084900,879.101929 748.335999,879.532104 746.937256,879.108887 
	C746.200989,878.886169 745.207703,877.850159 745.231079,877.214539 
	C745.258301,876.474731 746.136108,875.435669 746.888306,875.134033 
	C747.901550,874.727783 749.186218,875.051941 750.278687,874.769714 
	C750.919128,874.604248 751.588806,873.958496 751.895142,873.351990 
	C752.041016,873.062988 751.334106,871.899109 751.073975,871.919128 
	C748.865173,872.088989 746.210205,871.789124 744.603821,872.924438 
	C743.067017,874.010559 741.783508,876.725037 741.958862,878.575012 
	C742.107971,880.148254 744.254639,882.005005 745.956482,882.823486 
	C747.616699,883.622009 749.833313,883.263733 752.433289,883.980530 
M469.110840,837.311584 
	C462.784882,840.276978 461.855957,847.275940 458.151489,852.201355 
	C457.906006,852.527710 459.215698,854.023682 460.014709,855.320984 
	C461.733643,852.986755 462.979218,851.295288 464.257660,849.559265 
	C465.748474,850.308044 466.886780,850.989929 468.104614,851.470276 
	C471.464569,852.795410 474.401917,852.233704 476.296631,848.979431 
	C478.202118,845.706726 477.225708,842.866943 474.344727,840.669189 
	C472.897675,839.565308 471.272736,838.694702 469.110840,837.311584 
M535.303955,889.916443 
	C542.290527,886.982422 542.780334,883.498413 537.206238,878.312561 
	C536.170166,877.348755 536.035583,875.415894 535.484924,873.930176 
	C536.973022,874.081421 538.476990,874.145020 539.944153,874.411560 
	C541.119629,874.625061 542.250305,875.085144 543.400879,875.435791 
	C543.579041,875.006226 543.757202,874.576660 543.935364,874.147095 
	C543.169128,873.326111 542.525208,872.320557 541.614685,871.717468 
	C538.387634,869.580200 535.021667,868.942993 532.307007,872.375916 
	C529.566345,875.841919 531.375061,878.537659 534.354126,880.790894 
	C534.883972,881.191650 535.659424,881.508728 535.868835,882.042114 
	C536.304749,883.152588 536.437866,884.382080 536.695435,885.562622 
	C535.501709,885.794739 534.239563,886.374634 533.134277,886.157104 
	C532.111572,885.955872 531.327454,884.748596 530.303955,884.274048 
	C529.577271,883.937317 528.627258,884.082520 527.776917,884.012634 
	C527.864624,884.872192 527.640564,886.216370 528.093750,886.507996 
	C530.135010,887.821167 532.368225,888.835815 535.303955,889.916443 
M309.390106,651.420654 
	C310.119049,653.426453 310.577606,655.602661 311.689575,657.367126 
	C312.256866,658.267334 313.996704,658.428711 315.206573,658.924011 
	C314.890167,657.832642 314.385834,656.756592 314.295776,655.646851 
	C314.096710,653.194519 313.082001,649.770020 314.275024,648.490906 
	C315.986420,646.656067 319.597595,645.295227 321.966431,645.791321 
	C323.788696,646.173035 325.068665,649.659119 326.346252,651.903381 
	C326.959991,652.981445 327.010773,654.379944 327.539795,656.548767 
	C328.665863,655.058105 329.087555,654.714783 329.228699,654.280334 
	C330.907898,649.112122 327.966339,643.313782 323.013977,641.958679 
	C316.642365,640.215332 311.135956,643.730835 309.390106,651.420654 
M935.875549,721.150146 
	C936.405762,719.577942 936.959961,718.013306 937.456970,716.430664 
	C937.741882,715.523254 937.934021,714.586609 938.167969,713.663147 
	C937.173828,713.853760 935.954529,713.742371 935.224304,714.286804 
	C931.925415,716.746460 931.116455,721.363220 933.526367,723.927917 
	C936.430481,727.018677 939.361755,726.482361 942.141724,723.622620 
	C942.604797,723.146240 943.058044,722.434875 943.615479,722.321350 
	C944.881348,722.063660 946.209290,722.110535 947.511963,722.033569 
	C947.430237,723.412720 947.662048,724.920227 947.166443,726.129822 
	C946.778931,727.075745 945.397339,727.571045 944.641846,728.428955 
	C944.296997,728.820618 944.110901,729.929504 944.353088,730.141724 
	C944.874451,730.598206 946.181091,731.074707 946.361206,730.861755 
	C948.110474,728.794250 950.543152,726.763367 951.045227,724.359558 
	C951.422852,722.551575 949.762451,719.277466 948.086914,718.382141 
	C946.502869,717.535583 943.662781,718.760437 941.475037,719.410461 
	C939.710754,719.934570 938.095459,720.960022 935.875549,721.150146 
M387.914337,784.187744 
	C384.975891,787.926819 383.650391,785.208801 382.182098,782.793274 
	C381.501465,781.673523 380.663971,780.649109 379.897614,779.581482 
	C379.460510,779.899963 379.023407,780.218506 378.586304,780.536987 
	C378.576355,784.256287 380.118622,787.427979 383.706940,788.570068 
	C385.548340,789.156189 388.377533,788.477356 390.058105,787.336121 
	C393.259949,785.161865 391.486176,782.102539 390.604279,779.229187 
	C390.241394,778.046875 390.813873,776.577454 390.960876,775.238586 
	C392.271027,775.933411 393.688599,776.485413 394.859192,777.365784 
	C395.902405,778.150391 396.672394,779.298340 397.562927,780.285950 
	C397.964996,779.956543 398.367065,779.627136 398.769104,779.297729 
	C398.468536,778.211731 398.336914,777.039978 397.837006,776.055115 
	C396.037689,772.510559 393.121826,770.609863 389.270874,772.185181 
	C385.241791,773.833252 385.608521,777.188171 387.083313,780.591919 
	C387.473907,781.493408 387.695618,782.468018 387.914337,784.187744 
M907.982849,788.413574 
	C908.798950,786.315613 909.615051,784.217651 910.431152,782.119690 
	C909.847717,781.848328 909.264282,781.576965 908.680908,781.305542 
	C908.079956,782.205261 907.654663,783.331482 906.843750,783.960205 
	C904.795837,785.547974 902.350464,788.313232 900.478516,788.014221 
	C898.086182,787.632080 895.373840,785.095703 894.127441,782.774597 
	C892.649353,780.021912 894.395508,777.486633 897.258972,775.869202 
	C898.202881,775.336060 898.643066,773.910889 899.991455,771.864990 
	C893.583862,773.253540 890.710571,776.263733 890.172302,780.991211 
	C889.642395,785.644897 892.289246,788.916565 896.220459,790.984985 
	C900.372437,793.169556 904.224304,792.447327 907.982849,788.413574 
M297.374115,541.776062 
	C297.307312,543.934692 297.136353,546.098633 297.244476,548.248474 
	C297.272766,548.810425 298.142395,549.717896 298.674255,549.754150 
	C299.175995,549.788391 300.104218,548.954102 300.213989,548.381042 
	C300.603424,546.348083 300.723206,544.263428 300.976807,541.903687 
	C305.653717,542.232605 309.786041,542.431519 313.897125,542.842957 
	C316.880035,543.141357 317.727539,542.016479 316.997833,539.216370 
	C311.478943,538.857422 306.187256,538.615723 300.919037,538.122925 
	C298.633240,537.909119 297.381500,538.416382 297.374115,541.776062 
M333.900848,682.290100 
	C335.290375,681.767822 336.789520,681.420410 338.021942,680.647644 
	C338.614258,680.276184 339.108093,678.967224 338.897339,678.330933 
	C338.713196,677.774963 337.293427,677.072510 336.737885,677.281433 
	C331.257751,679.342102 325.844086,681.579468 320.507019,683.728394 
	C323.049469,693.036499 323.489960,693.682312 326.941772,693.262024 
	C326.210510,690.945801 325.489929,688.663452 324.671692,686.071838 
	C327.735596,684.843506 330.468994,683.747681 333.900848,682.290100 
M869.641968,799.972595 
	C867.227722,800.902710 867.089905,802.166748 868.867920,804.002625 
	C872.221497,807.465454 875.374756,811.128662 878.838928,814.472839 
	C879.574524,815.182922 881.285034,814.883240 882.546326,815.048828 
	C882.675354,814.527405 882.804321,814.005981 882.933350,813.484558 
	C878.724426,809.038818 874.515442,804.593079 869.641968,799.972595 
z"/>
<path fill="#E75139" opacity="1.000000" stroke="none" 
	d="
M555.015137,490.006592 
	C557.113159,476.363953 559.105713,462.704071 561.337708,449.083374 
	C563.760010,434.301575 566.476135,419.567993 568.903076,404.786926 
	C569.509399,401.094086 570.826050,398.588409 574.872192,397.978149 
	C578.908691,397.369354 582.196228,397.366638 584.475708,401.809845 
	C597.545654,427.286591 610.823486,452.656708 624.104492,478.617004 
	C624.429321,479.031738 624.680420,478.892487 624.931519,478.753235 
	C626.726990,463.389282 628.430542,448.013855 630.346436,432.664948 
	C631.933594,419.949707 633.927185,407.283997 635.415466,394.558289 
	C635.955322,389.941956 638.026428,387.646942 642.544617,387.218323 
	C645.308716,386.956116 648.053040,386.484344 651.605774,385.997040 
	C646.045715,424.109344 640.557983,461.725525 635.127014,498.952728 
	C642.786987,498.952728 650.322571,498.554443 657.796387,499.062866 
	C665.530151,499.588959 672.512817,502.723572 678.940613,507.108612 
	C678.787231,507.822571 678.787842,508.335510 678.574951,508.734650 
	C674.528503,516.322754 675.974792,519.026611 664.790100,514.338074 
	C635.057678,501.874420 606.598694,525.652466 611.264954,558.506531 
	C613.338379,573.105408 618.649109,585.873596 632.014099,593.777161 
	C645.587280,601.803894 667.785095,598.738342 678.862061,587.488098 
	C685.747498,580.494995 686.265930,580.521606 693.447571,588.469604 
	C686.004944,600.433472 674.954834,607.147766 661.386230,609.918213 
	C621.752686,618.010437 599.102234,591.045959 596.049072,558.738586 
	C593.402100,530.729492 607.522583,509.985748 629.769348,501.948639 
	C630.022949,501.856995 630.185974,501.514374 630.390747,501.288513 
	C630.275635,501.223969 630.132507,501.078552 630.050415,501.107300 
	C622.253784,503.838501 619.765015,498.788239 616.843506,492.953461 
	C604.770386,468.841492 592.290100,444.933441 579.926758,420.263672 
	C579.522461,419.236694 579.150818,418.896545 578.779175,418.556396 
	C578.566528,419.200531 578.353882,419.844666 578.141174,420.488770 
	C576.364807,432.322693 574.706299,444.175781 572.783997,455.985962 
	C570.003784,473.066803 566.940247,490.101898 564.226074,507.192810 
	C563.726135,510.340607 562.813843,511.769623 559.415283,512.101135 
	C550.180725,513.001953 550.178101,513.183838 545.969116,504.686768 
	C531.116455,474.702209 516.276001,444.711609 501.442047,414.717773 
	C500.787933,413.395142 500.243469,412.018311 499.413788,410.135376 
	C503.830170,409.383362 507.855469,408.249634 511.889954,408.215881 
	C513.682556,408.200867 516.360779,409.989014 517.166626,411.665466 
	C529.567871,437.465637 541.726685,463.382385 554.003479,489.923706 
	C554.489502,490.882782 554.913818,491.190125 555.338135,491.497498 
	C555.230469,491.000519 555.122803,490.503571 555.015137,490.006592 
z"/>
<path fill="#E85239" opacity="1.000000" stroke="none" 
	d="
M719.204346,567.683472 
	C720.882935,578.128052 722.498108,588.138855 724.179749,598.562012 
	C719.748352,599.320496 715.573730,600.035034 710.754578,600.859924 
	C709.540039,593.524841 708.310852,586.389282 707.182678,579.237793 
	C702.722473,550.963135 698.289856,522.684143 693.860840,494.404602 
	C693.494690,492.066284 693.139709,490.148895 690.141479,489.411163 
	C673.822876,485.396179 666.166443,473.539490 663.228149,458.126953 
	C662.154358,452.494232 661.804077,446.433899 662.619019,440.784363 
	C665.228516,422.696198 678.298767,411.415344 697.174683,410.060730 
	C714.195068,408.839264 728.603638,418.169006 733.604492,435.026550 
	C735.828613,442.523834 737.031616,450.826019 736.383972,458.569305 
	C735.016846,474.914612 725.363342,484.920868 709.289551,489.101562 
	C708.664062,489.264252 708.068420,489.541748 707.002563,489.933380 
	C711.054443,515.742004 715.097717,541.495911 719.204346,567.683472 
M719.974426,437.680054 
	C719.393311,436.302612 718.876404,434.893799 718.220764,433.552856 
	C713.480957,423.858582 705.980408,419.742279 695.567749,421.082458 
	C685.099182,422.429871 678.092834,428.721649 676.508301,439.210815 
	C674.902527,449.840637 676.547241,460.161682 682.010254,469.561615 
	C686.992920,478.134888 694.455750,480.960968 705.597168,478.987122 
	C714.449097,477.418884 720.246643,471.604492 722.119141,462.545563 
	C723.820801,454.313019 722.533447,446.343079 719.974426,437.680054 
z"/>
<path fill="#E85239" opacity="1.000000" stroke="none" 
	d="
M488.055054,653.924194 
	C505.276123,682.827515 522.330994,711.405090 539.781677,740.645874 
	C535.521545,741.388794 531.839661,742.640686 528.244568,742.427612 
	C526.111694,742.301147 523.412903,740.313965 522.182739,738.388000 
	C517.439697,730.961914 513.185730,723.223389 508.562805,715.280701 
	C493.323700,717.676636 478.096649,719.972168 462.929016,722.609192 
	C461.425232,722.870667 459.528595,725.018677 459.104828,726.630432 
	C457.244904,733.705017 455.584839,740.859314 454.400146,748.074646 
	C453.629089,752.770447 451.486084,755.218811 446.754547,755.600830 
	C444.117950,755.813782 441.507812,756.354553 438.116425,756.862915 
	C438.849426,753.292542 439.467194,749.984436 440.211365,746.705017 
	C447.870728,712.952271 455.576996,679.210083 463.177277,645.444031 
	C463.828918,642.549072 464.713745,640.679443 468.139191,640.603149 
	C470.760162,640.544800 473.369965,639.368225 475.974274,639.406250 
	C477.575470,639.429626 479.744385,640.386902 480.637238,641.647888 
	C483.323090,645.441162 485.508362,649.588989 488.055054,653.924194 
M488.942596,707.427979 
	C493.300751,706.724121 497.658875,706.020264 502.682159,705.208984 
	C492.954071,688.317932 483.614197,672.101013 474.125793,655.626160 
	C470.205200,674.108765 466.329346,692.380493 462.267395,711.529480 
	C471.479034,710.158142 479.790527,708.920776 488.942596,707.427979 
z"/>
<path fill="#E85239" opacity="1.000000" stroke="none" 
	d="
M902.960876,383.995819 
	C906.679749,407.610138 910.351990,430.790161 914.004578,453.973236 
	C914.077148,454.433624 913.920898,454.930023 913.874512,455.379913 
	C903.977722,458.295074 903.977722,458.295074 899.405701,446.495239 
	C897.683594,448.615326 896.192200,450.525024 894.624512,452.369873 
	C880.227966,469.311035 855.741882,466.457886 846.005676,446.515045 
	C840.230103,434.684753 838.147461,422.096954 840.890869,409.091187 
	C845.625366,386.646484 866.622803,376.645966 887.212280,386.805603 
	C887.635193,387.014282 888.143250,387.050323 889.515320,387.391937 
	C887.387085,373.611847 885.324646,360.258057 883.167419,346.290344 
	C887.500183,345.523743 891.807678,344.761658 896.572205,343.918671 
	C898.718872,357.341644 900.815491,370.451752 902.960876,383.995819 
M854.099060,424.050751 
	C855.483459,429.339233 856.287842,434.869873 858.373352,439.865723 
	C862.675964,450.173096 870.740417,453.700500 881.479736,450.793274 
	C891.944580,447.960358 897.740234,439.203339 896.104980,428.577332 
	C894.841553,420.367676 893.078552,412.208466 892.339233,403.955017 
	C891.928101,399.364441 889.475281,397.089203 886.090515,395.176910 
	C874.422791,388.585205 858.472900,394.893555 855.136902,407.832825 
	C853.880920,412.704102 854.355225,418.021454 854.099060,424.050751 
z"/>
<path fill="#E85239" opacity="1.000000" stroke="none" 
	d="
M909.872925,669.488586 
	C920.714111,672.656799 929.893127,669.757812 938.236084,663.322205 
	C945.079224,658.043579 945.071350,658.012085 951.083557,664.942993 
	C944.767639,674.387939 935.307129,678.819458 924.615845,680.941406 
	C899.952698,685.836487 883.746338,669.928162 879.987549,647.245667 
	C876.815125,628.102417 883.632385,612.381836 898.810120,605.545959 
	C920.877869,595.606750 943.117126,605.178589 947.226074,631.257324 
	C947.924438,635.689758 946.371460,637.279602 942.331726,637.883484 
	C926.732971,640.215210 911.152893,642.671753 895.568115,645.096436 
	C895.093750,645.170288 894.644348,645.404846 893.695923,645.733276 
	C895.562866,655.945374 899.113892,664.841797 909.872925,669.488586 
M928.925781,617.595459 
	C921.613586,610.959106 911.409729,609.970886 902.736694,615.058960 
	C895.506287,619.300720 891.392090,628.867188 893.445557,636.864624 
	C907.061707,634.673767 920.687134,632.481445 935.559143,630.088562 
	C933.133057,625.391052 931.264954,621.774109 928.925781,617.595459 
z"/>
<path fill="#E8523A" opacity="1.000000" stroke="none" 
	d="
M734.134155,707.763794 
	C730.205566,682.870361 726.333984,658.396423 722.467590,633.954956 
	C731.635803,630.246338 732.666382,630.743469 737.168030,641.484558 
	C738.566589,639.799438 739.733398,638.317322 740.979126,636.904846 
	C748.549255,628.321655 757.977966,624.529907 769.415649,625.867737 
	C777.800781,626.848572 783.949707,631.446106 786.873657,638.973022 
	C789.545959,645.852051 790.922058,653.305542 792.256409,660.617737 
	C794.583801,673.371948 796.440308,686.212036 798.609619,699.736023 
	C794.062683,700.556763 789.803467,701.325623 785.069397,702.180176 
	C783.012634,689.258789 781.035400,676.817383 779.050415,664.377197 
	C778.342773,659.942017 777.781067,655.475586 776.867004,651.082825 
	C774.417603,639.311401 765.689514,633.820557 754.676208,638.461426 
	C749.171997,640.780823 744.809631,645.926086 740.166138,650.057678 
	C739.392578,650.745911 739.536011,652.835083 739.745667,654.201782 
	C742.291931,670.804688 744.933044,687.393005 747.537598,703.987000 
	C747.714111,705.111389 747.794861,706.250854 747.965820,707.795776 
	C744.071899,708.516663 740.376343,709.315247 736.639832,709.794739 
	C735.904663,709.889160 735.011475,708.752197 734.134155,707.763794 
z"/>
<path fill="#E85239" opacity="1.000000" stroke="none" 
	d="
M764.076782,523.760132 
	C757.104065,523.926331 751.878845,526.941589 747.184265,531.189697 
	C740.615723,537.133545 739.033081,536.924988 734.001587,529.410950 
	C742.623352,517.809875 754.326660,512.041870 768.671143,512.147827 
	C780.123596,512.232422 789.373535,519.802002 792.027954,532.482239 
	C795.737732,550.204102 798.193298,568.188660 801.174072,585.992615 
	C792.524963,588.828674 792.524963,588.828674 786.862183,578.796265 
	C785.699890,580.078125 784.629456,581.265564 783.551575,582.446289 
	C775.903687,590.824341 766.505493,594.916565 755.086182,594.122986 
	C747.123657,593.569641 741.717896,589.485779 738.780640,582.179688 
	C735.676453,574.458252 736.909546,567.425476 742.874695,561.521912 
	C751.382019,553.102295 762.387451,549.822937 773.577820,547.017578 
	C775.815613,546.456543 778.093811,546.056641 780.314270,545.590698 
	C781.283569,532.335388 775.284668,524.096680 764.076782,523.760132 
M761.700806,560.046509 
	C758.921448,561.831665 755.873291,563.312439 753.426025,565.473633 
	C749.798706,568.676880 749.287659,572.901184 751.095703,577.339478 
	C752.829041,581.594360 755.979126,583.897522 760.652283,584.024597 
	C770.943420,584.304504 778.299988,579.219788 784.042175,571.224060 
	C784.489380,570.601318 784.869629,569.666870 784.764526,568.953430 
	C784.047607,564.085449 783.192261,559.237976 782.245056,553.566406 
	C775.263489,555.763611 768.841919,557.784546 761.700806,560.046509 
z"/>
<path fill="#E85239" opacity="1.000000" stroke="none" 
	d="
M695.849365,709.784546 
	C688.319946,717.738220 679.410217,721.475830 668.805664,721.043579 
	C660.696350,720.713013 654.941650,716.843872 651.775879,709.353760 
	C648.422363,701.419312 649.730774,694.123718 655.751831,688.238037 
	C664.032349,680.143860 674.665588,676.806702 685.518799,674.026306 
	C688.070740,673.372498 690.665894,672.886902 694.248779,672.103699 
	C692.878052,667.165039 692.148499,662.215271 690.146790,657.848816 
	C686.842468,650.640808 679.923706,648.382874 670.908691,651.579590 
	C666.957214,652.980713 663.242004,655.529907 659.950439,658.209900 
	C653.147095,663.749084 652.256775,663.817993 647.077820,656.761047 
	C654.116333,643.664062 675.176331,635.418457 688.960144,640.409729 
	C697.118530,643.364014 702.695740,649.341919 704.366333,657.512024 
	C708.121033,675.874146 710.932312,694.429138 714.107666,712.790100 
	C705.722717,715.638977 704.931335,715.228516 699.743774,705.544189 
	C698.447083,706.960388 697.273865,708.241699 695.849365,709.784546 
M691.971558,681.580322 
	C684.390503,684.316711 676.498230,686.424500 669.321472,689.977539 
	C662.963440,693.125305 661.625244,698.461975 663.956299,704.228638 
	C666.125000,709.593628 671.378967,711.994385 678.015808,710.723267 
	C685.556213,709.279175 691.533447,705.338684 695.972107,699.184082 
	C696.903442,697.892700 697.315918,695.892029 697.218567,694.263000 
	C697.011353,690.796448 696.515747,687.309753 695.695374,683.939148 
	C695.437622,682.879944 693.765869,682.164795 691.971558,681.580322 
z"/>
<path fill="#E75239" opacity="1.000000" stroke="none" 
	d="
M852.898682,552.277832 
	C847.592590,547.028198 840.795959,547.345398 834.531494,546.053101 
	C830.960205,545.316345 827.305176,544.901489 823.803345,543.926819 
	C808.749634,539.737305 803.880432,522.204102 814.452332,510.553253 
	C824.472412,499.510529 845.817261,497.583130 857.933594,506.627014 
	C855.809753,514.786438 855.497986,515.027893 847.524658,512.512207 
	C841.067810,510.475037 834.743469,510.394775 828.641785,513.497314 
	C824.172974,515.769653 821.293884,519.205078 821.851074,524.638489 
	C822.373840,529.736084 826.257385,531.595703 830.330261,532.582092 
	C836.445435,534.063049 842.735229,534.805847 848.913696,536.046692 
	C857.551392,537.781250 864.764709,541.383667 866.782227,551.026733 
	C868.905212,561.173950 865.035950,570.301025 856.269470,576.088867 
	C844.389282,583.932434 826.980164,583.945740 815.226746,576.120178 
	C816.757385,567.352417 819.934753,566.336548 826.481873,569.698120 
	C833.019043,573.054626 840.033203,572.774658 846.746338,569.789795 
	C854.192993,566.478882 856.434082,560.179138 852.898682,552.277832 
z"/>
<path fill="#E85239" opacity="1.000000" stroke="none" 
	d="
M891.999512,492.803101 
	C903.337463,489.188263 913.884216,489.589752 923.841492,495.738922 
	C922.402283,503.855896 921.509521,504.351349 913.820923,502.164276 
	C907.260254,500.298065 900.688293,499.955994 894.407898,503.191193 
	C890.097412,505.411682 887.414856,508.774872 887.838562,513.964539 
	C888.253723,519.049805 891.892029,521.078491 896.099731,522.030151 
	C903.048157,523.601685 910.153198,524.491943 917.084839,526.125061 
	C933.323730,529.951111 938.896545,548.422668 927.738770,560.977112 
	C917.164307,572.875244 894.001648,575.113098 880.934448,565.349854 
	C881.352539,564.184875 881.800781,562.960999 882.231506,561.731018 
	C883.691772,557.560913 886.262024,556.393616 890.341736,558.446106 
	C897.009827,561.800842 904.056885,562.690369 911.040527,559.920349 
	C913.973877,558.756775 917.026550,556.675415 918.843628,554.158447 
	C923.232910,548.078613 920.555054,540.431152 913.222778,538.273193 
	C907.530762,536.598206 901.526489,535.953979 895.640503,534.974487 
	C882.295410,532.753662 875.266357,526.113525 874.909973,515.269348 
	C874.581909,505.286713 880.307556,497.630005 891.999512,492.803101 
z"/>
<path fill="#E85239" opacity="1.000000" stroke="none" 
	d="
M816.676758,624.715393 
	C830.509827,611.006531 852.100098,608.760864 865.167236,619.598999 
	C864.661011,620.725769 864.084839,621.892883 863.604858,623.098389 
	C862.157227,626.733276 860.065125,627.538635 856.171204,626.049072 
	C852.238831,624.544739 847.755432,623.198486 843.681213,623.579163 
	C829.359253,624.917358 821.536865,633.429688 822.238098,647.785767 
	C822.610229,655.405212 824.168091,663.481873 827.364746,670.338623 
	C833.590210,683.691650 850.875854,686.285095 862.028259,676.510681 
	C862.778809,675.852966 863.458191,675.113403 864.164551,674.405762 
	C868.486084,670.075989 868.787476,670.088501 873.318298,674.483276 
	C873.913208,675.060364 874.667603,675.472900 875.602417,676.144226 
	C871.839233,682.997864 866.315674,687.068115 859.828186,689.825012 
	C837.780334,699.194214 817.488464,689.731140 810.673096,666.723877 
	C806.328308,652.056885 806.334534,637.763977 816.676758,624.715393 
z"/>
<path fill="#E8523A" opacity="1.000000" stroke="none" 
	d="
M809.685669,436.406921 
	C805.562256,410.585632 801.526184,385.191864 797.434814,359.450470 
	C802.068604,358.701782 806.116760,358.047729 810.948669,357.267029 
	C816.829895,394.328094 822.699097,431.313843 828.671326,468.948456 
	C824.165527,469.716553 819.880310,470.447021 815.135437,471.255859 
	C813.290710,459.414307 811.531860,448.124390 809.685669,436.406921 
z"/>
<path fill="#E8523A" opacity="1.000000" stroke="none" 
	d="
M600.214722,730.525269 
	C595.952576,731.656128 591.912170,732.466614 587.188232,733.414185 
	C581.250061,695.961731 575.382019,658.951965 569.438049,621.463318 
	C574.045105,620.717346 578.210754,620.042847 583.013977,619.265137 
	C588.847534,656.411011 594.641968,693.307983 600.214722,730.525269 
z"/>
<path fill="#E8523A" opacity="1.000000" stroke="none" 
	d="
M534.156860,627.466675 
	C538.373474,626.463684 542.292175,625.789368 546.935791,624.990295 
	C552.835449,662.168457 558.714844,699.218994 564.663635,736.707031 
	C560.329590,737.493042 556.137085,738.253296 551.278381,739.134460 
	C549.931030,730.981689 548.576721,723.034546 547.309326,715.073547 
	C542.915771,687.475220 538.546692,659.872925 534.193909,632.268127 
	C533.961792,630.796143 533.965210,629.287048 534.156860,627.466675 
z"/>
<path fill="#E8523A" opacity="1.000000" stroke="none" 
	d="
M756.539551,461.503235 
	C753.443359,442.016815 750.448792,422.957428 747.459717,403.933014 
	C757.863647,400.488708 757.863647,400.488708 762.624329,415.480530 
	C763.612610,413.309265 764.333862,411.741608 765.041199,410.167725 
	C768.758240,401.897583 774.965393,396.859192 784.124329,396.247009 
	C786.327087,396.099731 790.273804,397.055054 790.578247,398.235626 
	C791.449280,401.614227 790.987671,405.379700 790.684937,408.962158 
	C790.647644,409.403046 788.404785,409.912659 787.168091,409.958435 
	C771.293640,410.545593 763.684753,420.286499 766.429321,436.196716 
	C768.798889,449.933472 770.844727,463.726074 773.125977,478.074097 
	C768.438904,478.823029 764.141785,479.509674 759.547302,480.243835 
	C758.510925,473.713013 757.576050,467.821655 756.539551,461.503235 
z"/>
<path fill="#E8523A" opacity="1.000000" stroke="none" 
	d="
M614.490234,650.215210 
	C617.988831,649.726990 621.082153,649.320496 624.643005,648.852600 
	C628.722046,674.548462 632.747070,699.904419 636.825378,725.595398 
	C632.307922,726.329834 628.100342,727.013855 623.386292,727.780212 
	C621.645264,717.183105 619.884766,706.755371 618.227783,696.311218 
	C616.015137,682.365112 613.970032,668.391663 611.635498,654.466431 
	C611.217712,651.974365 611.486877,650.651367 614.490234,650.215210 
z"/>
<path fill="#E8523A" opacity="1.000000" stroke="none" 
	d="
M621.025330,618.955933 
	C624.489380,623.048584 624.710815,627.043274 621.901123,631.133240 
	C619.457520,634.690247 615.929810,635.812927 611.847595,634.994080 
	C607.636108,634.149231 605.209473,631.254944 604.445007,627.184509 
	C603.661804,623.014832 605.325623,619.535950 608.860107,617.350220 
	C613.017883,614.779114 617.106018,615.453430 621.025330,618.955933 
z"/>
<path fill="#E95A42" opacity="1.000000" stroke="none" 
	d="
M336.495514,417.537933 
	C338.930511,419.801849 341.443054,421.990692 343.752441,424.376221 
	C344.430664,425.076752 344.532745,426.335052 344.898895,427.337738 
	C343.885132,427.690247 342.863586,428.361053 341.859009,428.336609 
	C338.634247,428.258118 335.415710,427.922607 332.053925,427.675934 
	C333.221924,432.744293 341.102966,432.765991 339.613312,440.296173 
	C334.285614,435.643463 329.665588,431.677307 325.160156,427.584991 
	C324.613007,427.088043 324.231628,425.518738 324.565369,425.134644 
	C325.181519,424.425751 326.401581,423.842804 327.340698,423.883636 
	C331.101593,424.047058 334.851166,424.470032 339.745422,424.896362 
	C336.361084,421.800995 333.603973,419.480408 331.121643,416.895905 
	C330.293091,416.033173 330.167633,414.495148 329.720764,413.265839 
	C330.862427,412.885895 332.047272,412.084869 333.138550,412.196716 
	C338.742279,412.770905 344.321991,413.579865 349.910095,414.306793 
	C350.109406,414.748871 350.308716,415.190948 350.508026,415.633026 
	C349.015106,416.352081 347.537842,417.624512 346.025757,417.667419 
	C343.407318,417.741669 340.767303,417.053894 337.513794,416.505035 
	C336.464722,416.337616 336.038177,416.350861 335.611603,416.364105 
	C335.906250,416.755371 336.200867,417.146667 336.495514,417.537933 
M330.384338,427.475922 
	C330.384338,427.475922 330.709808,427.621307 330.709808,427.621307 
	C330.709808,427.621307 330.641663,427.347778 330.384338,427.475922 
z"/>
<path fill="#E95D46" opacity="1.000000" stroke="none" 
	d="
M635.492004,895.898560 
	C635.121948,899.193665 635.194641,902.355652 634.953369,905.493591 
	C634.888733,906.332825 633.864868,907.098328 633.281372,907.897705 
	C632.727966,907.073669 631.716370,906.261230 631.695190,905.423645 
	C631.552979,899.798401 631.621216,894.167847 631.621216,887.518433 
	C638.464905,890.232361 639.819336,896.847717 645.134888,900.943726 
	C645.134888,897.170349 645.014954,893.981445 645.213562,890.812500 
	C645.267761,889.947693 646.279785,889.142944 646.852295,888.310669 
	C647.444641,889.138855 648.526978,889.953613 648.550049,890.797424 
	C648.703186,896.393372 648.629395,901.995483 648.629395,908.656860 
	C641.609680,905.879883 640.247864,899.261047 635.492004,895.898560 
z"/>
<path fill="#E95F49" opacity="1.000000" stroke="none" 
	d="
M690.891968,891.400146 
	C693.954712,901.572144 690.468994,905.103516 675.675476,906.638672 
	C674.937561,900.345398 674.196899,894.028687 673.419250,887.397095 
	C679.890991,886.563782 686.251953,884.078796 690.891968,891.400146 
M685.343384,902.088379 
	C689.213379,899.169739 688.919250,895.352173 686.787048,891.880371 
	C684.754700,888.571228 681.449097,888.378418 677.635742,890.533997 
	C678.117554,894.632996 678.609802,898.821472 679.130188,903.249084 
	C681.374146,902.958313 683.006531,902.746765 685.343384,902.088379 
z"/>
<path fill="#E95C45" opacity="1.000000" stroke="none" 
	d="
M314.560913,588.650391 
	C310.388885,591.782166 306.163177,592.107483 302.195068,589.562134 
	C296.605652,585.976807 298.208099,580.009705 297.420319,574.374573 
	C304.152100,573.900085 310.347778,573.463379 316.792145,573.009155 
	C317.471985,578.571472 319.089539,583.817200 314.560913,588.650391 
M300.890961,580.380920 
	C301.666321,586.252014 304.343475,588.217773 309.907104,587.001160 
	C314.174683,586.067871 315.419525,582.871765 313.377258,576.228821 
	C309.250031,577.309875 305.051941,578.409424 300.890961,580.380920 
z"/>
<path fill="#E95D46" opacity="1.000000" stroke="none" 
	d="
M302.676331,502.330414 
	C302.960693,501.049469 303.681213,499.074890 304.144562,499.133484 
	C310.009399,499.875275 315.837250,500.909760 322.013123,501.925262 
	C320.579163,506.666290 322.112854,512.314514 316.608429,513.863586 
	C314.314545,514.509155 311.246826,512.404846 308.530975,511.550934 
	C308.616028,511.029388 308.701080,510.507874 308.786102,509.986328 
	C306.138794,511.130676 303.491455,512.275024 300.322815,513.644714 
	C300.153625,506.827667 308.029968,508.989410 309.208344,503.832031 
	C307.044281,503.396667 305.018616,502.989166 302.676331,502.330414 
M314.229095,504.258148 
	C310.585663,503.991150 311.756256,506.817322 312.086945,508.298096 
	C312.313049,509.310455 314.178955,510.729095 315.127869,510.601227 
	C316.182220,510.459167 317.870880,508.659027 317.757904,507.775909 
	C317.604858,506.579590 316.000793,505.568848 314.229095,504.258148 
z"/>
<path fill="#E95C45" opacity="1.000000" stroke="none" 
	d="
M823.357666,852.635010 
	C825.162109,853.521179 826.647766,854.229309 828.133423,854.937378 
	C828.079529,855.413330 828.025696,855.889221 827.971802,856.365173 
	C826.133057,856.265991 824.225586,856.439453 822.473206,855.997742 
	C820.347778,855.461914 818.353333,854.406616 816.302185,853.576050 
	C816.019531,853.906311 815.736877,854.236572 815.454163,854.566833 
	C816.467224,856.700439 817.480286,858.834106 818.628845,861.253052 
	C817.652161,861.792175 816.720825,862.306213 815.590942,862.929871 
	C812.347595,857.405762 809.240845,852.114258 805.798584,846.251282 
	C807.791016,845.050354 809.573242,843.467285 811.640686,842.868286 
	C813.858948,842.225403 816.946411,841.596802 818.540894,842.649353 
	C820.051270,843.646301 820.003174,846.875427 820.865234,849.033081 
	C821.358093,850.266968 822.299500,851.321594 823.357666,852.635010 
M812.991028,845.229858 
	C808.217590,848.291931 813.222168,849.701538 814.837708,852.311035 
	C815.839539,850.681335 816.841309,849.051697 817.843140,847.421997 
	C816.478394,846.619751 815.113708,845.817505 812.991028,845.229858 
z"/>
<path fill="#E95A42" opacity="1.000000" stroke="none" 
	d="
M324.988525,458.822144 
	C329.779602,462.006470 331.130920,466.088013 329.238129,471.085999 
	C327.578674,475.467712 324.299377,477.538605 319.568207,477.268768 
	C315.397644,477.030823 311.531708,475.273682 310.793976,471.286835 
	C310.174500,467.939117 310.717163,463.299774 312.724945,460.864166 
	C314.509613,458.699188 318.995605,458.701660 322.330261,457.923004 
	C323.007904,457.764801 323.868500,458.390228 324.988525,458.822144 
M322.450836,461.838440 
	C318.442810,460.115540 315.224854,460.985474 313.507080,465.100006 
	C312.052856,468.583435 313.532776,471.284332 316.815491,472.819550 
	C320.266327,474.433380 323.658356,474.562561 325.862305,470.768829 
	C328.028595,467.039948 326.775177,464.148254 322.450836,461.838440 
z"/>
<path fill="#E95F49" opacity="1.000000" stroke="none" 
	d="
M603.578369,890.485352 
	C604.843140,895.690918 605.983215,900.509399 607.123230,905.327942 
	C606.847351,905.589783 606.571472,905.851562 606.295593,906.113342 
	C603.804077,904.107300 601.467163,900.765076 598.779419,900.454041 
	C595.823792,900.112000 592.545349,902.558777 587.846497,904.403320 
	C591.690674,897.532227 594.819336,891.828003 598.112061,886.220154 
	C598.458740,885.629700 600.350647,885.152039 600.541382,885.394897 
	C601.673096,886.836304 602.514587,888.505615 603.578369,890.485352 
M600.878662,892.908020 
	C600.528442,892.080872 600.178223,891.253723 599.604431,889.898499 
	C598.263733,892.441345 597.204041,894.451172 595.945190,896.838806 
	C597.971130,897.260071 599.644531,897.608093 601.765869,898.049194 
	C601.431396,896.140259 601.211609,894.885742 600.878662,892.908020 
z"/>
<path fill="#E95F49" opacity="1.000000" stroke="none" 
	d="
M441.680145,817.789673 
	C442.535583,818.975647 443.731018,820.204712 443.504120,821.053650 
	C441.890198,827.091309 439.985504,833.051331 437.794281,840.288025 
	C435.906403,836.031921 435.292511,831.986023 432.946991,830.137817 
	C430.769928,828.422607 426.744293,829.053467 423.532593,828.651306 
	C423.445831,828.220276 423.359039,827.789246 423.272247,827.358215 
	C429.302094,824.124390 435.331940,820.890625 441.680145,817.789673 
M438.409546,826.955933 
	C438.845673,825.450623 439.281799,823.945374 440.006866,821.442810 
	C437.091858,823.322388 435.047729,824.640381 433.003571,825.958435 
	C433.114532,826.522034 433.225464,827.085632 433.336426,827.649231 
	C434.938538,827.649231 436.540680,827.649231 438.409546,826.955933 
z"/>
<path fill="#E95D46" opacity="1.000000" stroke="none" 
	d="
M344.050598,725.074158 
	C342.492310,721.483154 341.649719,717.555664 336.511047,718.749207 
	C335.685425,718.941040 334.550629,717.801758 333.558716,717.277832 
	C333.840027,716.733826 334.121338,716.189819 334.402649,715.645813 
	C340.881927,714.850830 347.353943,713.959900 353.856110,713.466919 
	C354.312103,713.432373 355.944855,717.071167 355.413788,717.765991 
	C351.635956,722.708008 347.437073,727.328247 343.372284,732.050964 
	C342.811951,731.762939 342.251587,731.474915 341.691254,731.186890 
	C342.492371,729.281433 343.293518,727.375977 344.050598,725.074158 
M349.803070,716.993896 
	C347.912018,717.329590 346.020935,717.665222 343.581207,718.098328 
	C344.704681,719.997192 345.538757,721.406982 347.007019,723.888672 
	C348.512177,720.918457 349.504425,718.960449 349.803070,716.993896 
z"/>
<path fill="#E95F49" opacity="1.000000" stroke="none" 
	d="
M919.892822,759.062439 
	C916.783997,756.848328 913.981506,754.825073 910.994751,752.668762 
	C913.532349,749.104797 915.803528,745.914917 918.074707,742.725037 
	C918.693909,743.023376 919.313171,743.321716 919.932373,743.619995 
	C918.699463,746.166870 917.466553,748.713684 916.095093,751.546814 
	C917.069885,752.299622 918.210815,753.180786 919.320190,754.037537 
	C921.255127,752.348511 923.021362,750.806702 924.787659,749.264893 
	C925.171753,749.673889 925.555847,750.082886 925.939941,750.491882 
	C924.902466,752.278870 923.864990,754.065857 922.681580,756.104248 
	C923.917725,757.074890 925.047241,757.961914 926.631470,759.205933 
	C927.882629,757.495544 928.914185,755.855591 930.191040,754.436157 
	C930.836121,753.718872 931.924927,753.400757 932.813171,752.902161 
	C932.751831,754.003967 933.063293,755.330688 932.559631,756.165710 
	C931.022827,758.713562 929.172058,761.072083 927.064819,764.037170 
	C924.707031,762.394287 922.453125,760.823792 919.892822,759.062439 
z"/>
<path fill="#E95C45" opacity="1.000000" stroke="none" 
	d="
M775.637573,869.397705 
	C774.560791,866.950806 773.640381,864.850830 772.544373,862.350098 
	C776.747314,861.000183 780.025330,857.881042 784.334656,858.286743 
	C784.534668,858.793213 784.734680,859.299683 784.934692,859.806152 
	C782.548767,861.059509 780.162903,862.312805 777.509521,863.706604 
	C778.047424,865.104187 778.565796,866.451172 779.022278,867.637329 
	C779.659607,867.772339 779.984619,867.933350 780.277893,867.888306 
	C782.205750,867.592529 784.126892,867.252319 786.050171,866.926514 
	C784.523804,868.505371 782.997559,870.084229 781.096069,872.051086 
	C781.408875,872.818054 781.947693,874.139404 782.663696,875.895081 
	C784.671326,875.097839 786.422302,874.249207 788.266785,873.736633 
	C789.151184,873.490845 790.212402,873.881165 791.193481,873.983398 
	C790.628235,874.770447 790.234131,875.892090 789.466980,876.284485 
	C786.696045,877.701782 783.799622,878.873901 780.506287,880.335754 
	C778.853882,876.621887 777.323975,873.183167 775.637573,869.397705 
z"/>
<path fill="#E95D46" opacity="1.000000" stroke="none" 
	d="
M492.478333,867.518188 
	C494.636871,863.024353 496.612366,858.867188 498.541443,854.807678 
	C506.704315,856.735779 510.367004,860.140930 509.339722,864.523987 
	C508.226196,869.274780 504.991760,870.191772 497.738098,868.191406 
	C495.569305,869.844543 493.735352,871.242432 491.901367,872.640381 
	C492.032623,871.045166 492.163940,869.450073 492.478333,867.518188 
M504.681824,865.405090 
	C507.627686,860.872253 504.531433,859.858337 500.750854,858.707581 
	C499.804504,860.784729 498.960541,862.637207 497.740723,865.314636 
	C500.328156,865.533630 502.185608,865.690796 504.681824,865.405090 
z"/>
<path fill="#E95F49" opacity="1.000000" stroke="none" 
	d="
M847.693726,820.766602 
	C848.101929,819.248535 848.612732,818.087646 849.123535,816.926697 
	C849.557678,816.962341 849.991821,816.997925 850.425964,817.033569 
	C852.070801,823.213562 853.818787,829.371216 855.176025,835.613708 
	C855.291809,836.146301 852.260498,838.264954 851.614990,837.919739 
	C846.107605,834.973694 840.813904,831.628113 835.715332,827.775757 
	C842.140442,824.935974 845.158508,832.068909 851.015137,832.885986 
	C849.914368,828.863586 848.855347,824.993713 847.693726,820.766602 
z"/>
<path fill="#E95F49" opacity="1.000000" stroke="none" 
	d="
M373.224304,749.693237 
	C371.876709,748.607239 370.621460,747.876648 369.366180,747.145996 
	C369.191498,748.623718 368.641876,750.173035 368.908264,751.566467 
	C369.959747,757.066650 368.715210,759.676819 364.461639,760.174377 
	C360.522064,760.635254 356.781006,757.322632 356.572693,752.958740 
	C356.524963,751.958679 357.275024,750.920532 357.657898,749.899902 
	C358.107819,749.942932 358.557739,749.986023 359.007629,750.029053 
	C359.421814,751.513245 359.491455,753.253113 360.348755,754.408508 
	C361.176666,755.524170 362.816681,756.037292 364.099915,756.815125 
	C364.530212,755.559509 365.115417,754.329773 365.331604,753.038330 
	C365.457458,752.286621 364.690826,751.370483 364.849274,750.642212 
	C365.305817,748.543884 365.451294,745.853821 366.821136,744.636963 
	C368.006439,743.583984 371.335693,743.384094 372.579559,744.319641 
	C374.487823,745.755005 375.476349,748.457886 376.684021,750.714478 
	C376.812714,750.954956 375.800934,751.805786 375.318176,752.373474 
	C374.651001,751.598511 373.983826,750.823547 373.224304,749.693237 
z"/>
<path fill="#E95D46" opacity="1.000000" stroke="none" 
	d="
M752.119446,883.696899 
	C749.833313,883.263733 747.616699,883.622009 745.956482,882.823486 
	C744.254639,882.005005 742.107971,880.148254 741.958862,878.575012 
	C741.783508,876.725037 743.067017,874.010559 744.603821,872.924438 
	C746.210205,871.789124 748.865173,872.088989 751.073975,871.919128 
	C751.334106,871.899109 752.041016,873.062988 751.895142,873.351990 
	C751.588806,873.958496 750.919128,874.604248 750.278687,874.769714 
	C749.186218,875.051941 747.901550,874.727783 746.888306,875.134033 
	C746.136108,875.435669 745.258301,876.474731 745.231079,877.214539 
	C745.207703,877.850159 746.200989,878.886169 746.937256,879.108887 
	C748.335999,879.532104 750.084900,879.101929 751.302124,879.750732 
	C753.143250,880.732056 755.901123,882.238220 756.012146,883.693665 
	C756.178284,885.870544 754.971924,889.054382 753.263245,890.226379 
	C751.442017,891.475586 748.358948,890.927429 745.821472,891.020691 
	C745.583252,891.029419 745.307312,890.011353 745.048828,889.470093 
	C745.967651,889.071350 746.883118,888.343872 747.805908,888.334534 
	C750.796692,888.304138 753.858337,888.610657 752.119446,883.696899 
z"/>
<path fill="#E95A42" opacity="1.000000" stroke="none" 
	d="
M469.419556,837.515137 
	C471.272736,838.694702 472.897675,839.565308 474.344727,840.669189 
	C477.225708,842.866943 478.202118,845.706726 476.296631,848.979431 
	C474.401917,852.233704 471.464569,852.795410 468.104614,851.470276 
	C466.886780,850.989929 465.748474,850.308044 464.257660,849.559265 
	C462.979218,851.295288 461.733643,852.986755 460.014709,855.320984 
	C459.215698,854.023682 457.906006,852.527710 458.151489,852.201355 
	C461.855957,847.275940 462.784882,840.276978 469.419556,837.515137 
M473.796204,845.541199 
	C472.502625,843.929016 471.209045,842.316772 469.540833,840.237732 
	C467.874329,842.981873 466.811523,844.731934 465.769440,846.447815 
	C470.601471,849.844116 470.601471,849.844116 473.796204,845.541199 
z"/>
<path fill="#E95F49" opacity="1.000000" stroke="none" 
	d="
M534.918091,889.937256 
	C532.368225,888.835815 530.135010,887.821167 528.093750,886.507996 
	C527.640564,886.216370 527.864624,884.872192 527.776917,884.012634 
	C528.627258,884.082520 529.577271,883.937317 530.303955,884.274048 
	C531.327454,884.748596 532.111572,885.955872 533.134277,886.157104 
	C534.239563,886.374634 535.501709,885.794739 536.695435,885.562622 
	C536.437866,884.382080 536.304749,883.152588 535.868835,882.042114 
	C535.659424,881.508728 534.883972,881.191650 534.354126,880.790894 
	C531.375061,878.537659 529.566345,875.841919 532.307007,872.375916 
	C535.021667,868.942993 538.387634,869.580200 541.614685,871.717468 
	C542.525208,872.320557 543.169128,873.326111 543.935364,874.147095 
	C543.757202,874.576660 543.579041,875.006226 543.400879,875.435791 
	C542.250305,875.085144 541.119629,874.625061 539.944153,874.411560 
	C538.476990,874.145020 536.973022,874.081421 535.484924,873.930176 
	C536.035583,875.415894 536.170166,877.348755 537.206238,878.312561 
	C542.780334,883.498413 542.290527,886.982422 534.918091,889.937256 
z"/>
<path fill="#E95F49" opacity="1.000000" stroke="none" 
	d="
M309.388245,651.039917 
	C311.135956,643.730835 316.642365,640.215332 323.013977,641.958679 
	C327.966339,643.313782 330.907898,649.112122 329.228699,654.280334 
	C329.087555,654.714783 328.665863,655.058105 327.539795,656.548767 
	C327.010773,654.379944 326.959991,652.981445 326.346252,651.903381 
	C325.068665,649.659119 323.788696,646.173035 321.966431,645.791321 
	C319.597595,645.295227 315.986420,646.656067 314.275024,648.490906 
	C313.082001,649.770020 314.096710,653.194519 314.295776,655.646851 
	C314.385834,656.756592 314.890167,657.832642 315.206573,658.924011 
	C313.996704,658.428711 312.256866,658.267334 311.689575,657.367126 
	C310.577606,655.602661 310.119049,653.426453 309.388245,651.039917 
z"/>
<path fill="#E95F49" opacity="1.000000" stroke="none" 
	d="
M936.144775,721.456543 
	C938.095459,720.960022 939.710754,719.934570 941.475037,719.410461 
	C943.662781,718.760437 946.502869,717.535583 948.086914,718.382141 
	C949.762451,719.277466 951.422852,722.551575 951.045227,724.359558 
	C950.543152,726.763367 948.110474,728.794250 946.361206,730.861755 
	C946.181091,731.074707 944.874451,730.598206 944.353088,730.141724 
	C944.110901,729.929504 944.296997,728.820618 944.641846,728.428955 
	C945.397339,727.571045 946.778931,727.075745 947.166443,726.129822 
	C947.662048,724.920227 947.430237,723.412720 947.511963,722.033569 
	C946.209290,722.110535 944.881348,722.063660 943.615479,722.321350 
	C943.058044,722.434875 942.604797,723.146240 942.141724,723.622620 
	C939.361755,726.482361 936.430481,727.018677 933.526367,723.927917 
	C931.116455,721.363220 931.925415,716.746460 935.224304,714.286804 
	C935.954529,713.742371 937.173828,713.853760 938.167969,713.663147 
	C937.934021,714.586609 937.741882,715.523254 937.456970,716.430664 
	C936.959961,718.013306 936.405762,719.577942 936.144775,721.456543 
z"/>
<path fill="#E95F49" opacity="1.000000" stroke="none" 
	d="
M387.954590,783.798401 
	C387.695618,782.468018 387.473907,781.493408 387.083313,780.591919 
	C385.608521,777.188171 385.241791,773.833252 389.270874,772.185181 
	C393.121826,770.609863 396.037689,772.510559 397.837006,776.055115 
	C398.336914,777.039978 398.468536,778.211731 398.769104,779.297729 
	C398.367065,779.627136 397.964996,779.956543 397.562927,780.285950 
	C396.672394,779.298340 395.902405,778.150391 394.859192,777.365784 
	C393.688599,776.485413 392.271027,775.933411 390.960876,775.238586 
	C390.813873,776.577454 390.241394,778.046875 390.604279,779.229187 
	C391.486176,782.102539 393.259949,785.161865 390.058105,787.336121 
	C388.377533,788.477356 385.548340,789.156189 383.706940,788.570068 
	C380.118622,787.427979 378.576355,784.256287 378.586304,780.536987 
	C379.023407,780.218506 379.460510,779.899963 379.897614,779.581482 
	C380.663971,780.649109 381.501465,781.673523 382.182098,782.793274 
	C383.650391,785.208801 384.975891,787.926819 387.954590,783.798401 
z"/>
<path fill="#E95F49" opacity="1.000000" stroke="none" 
	d="
M907.735229,788.703857 
	C904.224304,792.447327 900.372437,793.169556 896.220459,790.984985 
	C892.289246,788.916565 889.642395,785.644897 890.172302,780.991211 
	C890.710571,776.263733 893.583862,773.253540 899.991455,771.864990 
	C898.643066,773.910889 898.202881,775.336060 897.258972,775.869202 
	C894.395508,777.486633 892.649353,780.021912 894.127441,782.774597 
	C895.373840,785.095703 898.086182,787.632080 900.478516,788.014221 
	C902.350464,788.313232 904.795837,785.547974 906.843750,783.960205 
	C907.654663,783.331482 908.079956,782.205261 908.680908,781.305542 
	C909.264282,781.576965 909.847717,781.848328 910.431152,782.119690 
	C909.615051,784.217651 908.798950,786.315613 907.735229,788.703857 
z"/>
<path fill="#E95F49" opacity="1.000000" stroke="none" 
	d="
M297.432251,541.335938 
	C297.381500,538.416382 298.633240,537.909119 300.919037,538.122925 
	C306.187256,538.615723 311.478943,538.857422 316.997833,539.216370 
	C317.727539,542.016479 316.880035,543.141357 313.897125,542.842957 
	C309.786041,542.431519 305.653717,542.232605 300.976807,541.903687 
	C300.723206,544.263428 300.603424,546.348083 300.213989,548.381042 
	C300.104218,548.954102 299.175995,549.788391 298.674255,549.754150 
	C298.142395,549.717896 297.272766,548.810425 297.244476,548.248474 
	C297.136353,546.098633 297.307312,543.934692 297.432251,541.335938 
z"/>
<path fill="#E95D46" opacity="1.000000" stroke="none" 
	d="
M333.551605,682.470947 
	C330.468994,683.747681 327.735596,684.843506 324.671692,686.071838 
	C325.489929,688.663452 326.210510,690.945801 326.941772,693.262024 
	C323.489960,693.682312 323.049469,693.036499 320.507019,683.728394 
	C325.844086,681.579468 331.257751,679.342102 336.737885,677.281433 
	C337.293427,677.072510 338.713196,677.774963 338.897339,678.330933 
	C339.108093,678.967224 338.614258,680.276184 338.021942,680.647644 
	C336.789520,681.420410 335.290375,681.767822 333.551605,682.470947 
z"/>
<path fill="#E95D46" opacity="1.000000" stroke="none" 
	d="
M869.974243,800.059937 
	C874.515442,804.593079 878.724426,809.038818 882.933350,813.484558 
	C882.804321,814.005981 882.675354,814.527405 882.546326,815.048828 
	C881.285034,814.883240 879.574524,815.182922 878.838928,814.472839 
	C875.374756,811.128662 872.221497,807.465454 868.867920,804.002625 
	C867.089905,802.166748 867.227722,800.902710 869.974243,800.059937 
z"/>
<path fill="#E85239" opacity="1.000000" stroke="none" 
	d="
M554.760925,490.069214 
	C555.122803,490.503571 555.230469,491.000519 555.338135,491.497498 
	C554.913818,491.190125 554.489502,490.882782 554.031860,490.290527 
	C554.167908,490.047699 554.337341,490.089752 554.760925,490.069214 
z"/>
<path fill="#E85239" opacity="1.000000" stroke="none" 
	d="
M578.426880,420.382446 
	C578.353882,419.844666 578.566528,419.200531 578.779175,418.556396 
	C579.150818,418.896545 579.522461,419.236694 579.904053,419.910889 
	C579.513489,420.255371 579.112976,420.265747 578.426880,420.382446 
z"/>
<path fill="#E85239" opacity="1.000000" stroke="none" 
	d="
M624.715027,478.798157 
	C624.680420,478.892487 624.429321,479.031738 624.120605,478.968811 
	C624.062988,478.766632 624.498535,478.843048 624.715027,478.798157 
z"/>
<path fill="#FFFDFD" opacity="1.000000" stroke="none" 
	d="
M720.081177,438.063416 
	C722.533447,446.343079 723.820801,454.313019 722.119141,462.545563 
	C720.246643,471.604492 714.449097,477.418884 705.597168,478.987122 
	C694.455750,480.960968 686.992920,478.134888 682.010254,469.561615 
	C676.547241,460.161682 674.902527,449.840637 676.508301,439.210815 
	C678.092834,428.721649 685.099182,422.429871 695.567749,421.082458 
	C705.980408,419.742279 713.480957,423.858582 718.220764,433.552856 
	C718.876404,434.893799 719.393311,436.302612 720.081177,438.063416 
z"/>
<path fill="#FFFCFB" opacity="1.000000" stroke="none" 
	d="
M488.522339,707.555664 
	C479.790527,708.920776 471.479034,710.158142 462.267395,711.529480 
	C466.329346,692.380493 470.205200,674.108765 474.125793,655.626160 
	C483.614197,672.101013 492.954071,688.317932 502.682159,705.208984 
	C497.658875,706.020264 493.300751,706.724121 488.522339,707.555664 
z"/>
<path fill="#FFFDFD" opacity="1.000000" stroke="none" 
	d="
M854.069946,423.593109 
	C854.355225,418.021454 853.880920,412.704102 855.136902,407.832825 
	C858.472900,394.893555 874.422791,388.585205 886.090515,395.176910 
	C889.475281,397.089203 891.928101,399.364441 892.339233,403.955017 
	C893.078552,412.208466 894.841553,420.367676 896.104980,428.577332 
	C897.740234,439.203339 891.944580,447.960358 881.479736,450.793274 
	C870.740417,453.700500 862.675964,450.173096 858.373352,439.865723 
	C856.287842,434.869873 855.483459,429.339233 854.069946,423.593109 
z"/>
<path fill="#FFFCFB" opacity="1.000000" stroke="none" 
	d="
M929.161377,617.876343 
	C931.264954,621.774109 933.133057,625.391052 935.559143,630.088562 
	C920.687134,632.481445 907.061707,634.673767 893.445557,636.864624 
	C891.392090,628.867188 895.506287,619.300720 902.736694,615.058960 
	C911.409729,609.970886 921.613586,610.959106 929.161377,617.876343 
z"/>
<path fill="#FFFCFB" opacity="1.000000" stroke="none" 
	d="
M762.060547,559.926025 
	C768.841919,557.784546 775.263489,555.763611 782.245056,553.566406 
	C783.192261,559.237976 784.047607,564.085449 784.764526,568.953430 
	C784.869629,569.666870 784.489380,570.601318 784.042175,571.224060 
	C778.299988,579.219788 770.943420,584.304504 760.652283,584.024597 
	C755.979126,583.897522 752.829041,581.594360 751.095703,577.339478 
	C749.287659,572.901184 749.798706,568.676880 753.426025,565.473633 
	C755.873291,563.312439 758.921448,561.831665 762.060547,559.926025 
z"/>
<path fill="#FFFCFB" opacity="1.000000" stroke="none" 
	d="
M692.356445,681.436279 
	C693.765869,682.164795 695.437622,682.879944 695.695374,683.939148 
	C696.515747,687.309753 697.011353,690.796448 697.218567,694.263000 
	C697.315918,695.892029 696.903442,697.892700 695.972107,699.184082 
	C691.533447,705.338684 685.556213,709.279175 678.015808,710.723267 
	C671.378967,711.994385 666.125000,709.593628 663.956299,704.228638 
	C661.625244,698.461975 662.963440,693.125305 669.321472,689.977539 
	C676.498230,686.424500 684.390503,684.316711 692.356445,681.436279 
z"/>
<path fill="#FFFFFE" opacity="1.000000" stroke="none" 
	d="
M336.698273,417.324463 
	C336.200867,417.146667 335.906250,416.755371 335.611603,416.364105 
	C336.038177,416.350861 336.464722,416.337616 337.091797,416.497650 
	C337.161865,416.817627 337.031433,416.964294 336.698273,417.324463 
z"/>
<path fill="#FFFFFE" opacity="1.000000" stroke="none" 
	d="
M330.513000,427.411865 
	C330.641663,427.347778 330.709808,427.621307 330.709808,427.621307 
	C330.709808,427.621307 330.384338,427.475922 330.513000,427.411865 
z"/>
<path fill="#FEF7F6" opacity="1.000000" stroke="none" 
	d="
M684.991211,902.311829 
	C683.006531,902.746765 681.374146,902.958313 679.130188,903.249084 
	C678.609802,898.821472 678.117554,894.632996 677.635742,890.533997 
	C681.449097,888.378418 684.754700,888.571228 686.787048,891.880371 
	C688.919250,895.352173 689.213379,899.169739 684.991211,902.311829 
z"/>
<path fill="#FEF7F6" opacity="1.000000" stroke="none" 
	d="
M300.872437,579.944946 
	C305.051941,578.409424 309.250031,577.309875 313.377258,576.228821 
	C315.419525,582.871765 314.174683,586.067871 309.907104,587.001160 
	C304.343475,588.217773 301.666321,586.252014 300.872437,579.944946 
z"/>
<path fill="#FEF7F6" opacity="1.000000" stroke="none" 
	d="
M314.624146,504.368317 
	C316.000793,505.568848 317.604858,506.579590 317.757904,507.775909 
	C317.870880,508.659027 316.182220,510.459167 315.127869,510.601227 
	C314.178955,510.729095 312.313049,509.310455 312.086945,508.298096 
	C311.756256,506.817322 310.585663,503.991150 314.624146,504.368317 
z"/>
<path fill="#FDEEEC" opacity="1.000000" stroke="none" 
	d="
M813.369995,845.122559 
	C815.113708,845.817505 816.478394,846.619751 817.843140,847.421997 
	C816.841309,849.051697 815.839539,850.681335 814.837708,852.311035 
	C813.222168,849.701538 808.217590,848.291931 813.369995,845.122559 
z"/>
<path fill="#FEF7F6" opacity="1.000000" stroke="none" 
	d="
M322.819092,461.959839 
	C326.775177,464.148254 328.028595,467.039948 325.862305,470.768829 
	C323.658356,474.562561 320.266327,474.433380 316.815491,472.819550 
	C313.532776,471.284332 312.052856,468.583435 313.507080,465.100006 
	C315.224854,460.985474 318.442810,460.115540 322.819092,461.959839 
z"/>
<path fill="#FDEEEC" opacity="1.000000" stroke="none" 
	d="
M600.935242,893.269653 
	C601.211609,894.885742 601.431396,896.140259 601.765869,898.049194 
	C599.644531,897.608093 597.971130,897.260071 595.945190,896.838806 
	C597.204041,894.451172 598.263733,892.441345 599.604431,889.898499 
	C600.178223,891.253723 600.528442,892.080872 600.935242,893.269653 
z"/>
<path fill="#FDEEEC" opacity="1.000000" stroke="none" 
	d="
M438.276184,827.302612 
	C436.540680,827.649231 434.938538,827.649231 433.336426,827.649231 
	C433.225464,827.085632 433.114532,826.522034 433.003571,825.958435 
	C435.047729,824.640381 437.091858,823.322388 440.006866,821.442810 
	C439.281799,823.945374 438.845673,825.450623 438.276184,827.302612 
z"/>
<path fill="#FDEEEC" opacity="1.000000" stroke="none" 
	d="
M350.149872,716.998169 
	C349.504425,718.960449 348.512177,720.918457 347.007019,723.888672 
	C345.538757,721.406982 344.704681,719.997192 343.581207,718.098328 
	C346.020935,717.665222 347.912018,717.329590 350.149872,716.998169 
z"/>
<path fill="#FDEEEC" opacity="1.000000" stroke="none" 
	d="
M504.362427,865.626526 
	C502.185608,865.690796 500.328156,865.533630 497.740723,865.314636 
	C498.960541,862.637207 499.804504,860.784729 500.750854,858.707581 
	C504.531433,859.858337 507.627686,860.872253 504.362427,865.626526 
z"/>
<path fill="#FDEEEC" opacity="1.000000" stroke="none" 
	d="
M473.722229,845.896118 
	C470.601471,849.844116 470.601471,849.844116 465.769440,846.447815 
	C466.811523,844.731934 467.874329,842.981873 469.540833,840.237732 
	C471.209045,842.316772 472.502625,843.929016 473.722229,845.896118 
z"/>
</svg>